<svg width="401" height="214" viewBox="0 0 401 214" fill="none" xmlns="http://www.w3.org/2000/svg">
<path d="M89.9302 0H89.1931V213.306H89.9302V0Z" fill="#CCCCCC"/>
<path d="M178.386 0H177.649V213.306H178.386V0Z" fill="#CCCCCC"/>
<path d="M267.579 0H266.842V213.306H267.579V0Z" fill="#CCCCCC"/>
<path d="M356.772 0H356.035V213.306H356.772V0Z" fill="#CCCCCC"/>
<path d="M0.737133 0H0V213.306H0.737133V0Z" fill="#EBEBEB"/>
<path d="M44.9652 0H44.228V213.306H44.9652V0Z" fill="#EBEBEB"/>
<path d="M134.158 0H133.421V213.306H134.158V0Z" fill="#EBEBEB"/>
<path d="M223.351 0H222.614V213.306H223.351V0Z" fill="#EBEBEB"/>
<path d="M311.807 0H311.07V213.306H311.807V0Z" fill="#EBEBEB"/>
<path d="M401 0H400.263V213.306H401V0Z" fill="#EBEBEB"/>
<path d="M378.886 212.442H22.114V213.306H378.886V212.442Z" fill="#CCCCCC"/>
<path d="M378.886 177.035H22.114V177.899H378.886V177.035Z" fill="#CCCCCC"/>
<path d="M378.886 141.628H22.114V142.492H378.886V141.628Z" fill="#CCCCCC"/>
<path d="M378.886 106.221H22.114V107.085H378.886V106.221Z" fill="#CCCCCC"/>
<path d="M378.886 70.8142H22.114V71.6778H378.886V70.8142Z" fill="#CCCCCC"/>
<path d="M378.886 35.4071H22.114V36.2707H378.886V35.4071Z" fill="#CCCCCC"/>
<path d="M378.886 0H22.114V0.863587H378.886V0Z" fill="#CCCCCC"/>
<path d="M378.886 212.442H22.114V213.306H378.886V212.442Z" fill="#333333"/>
<path d="M44.9651 42.9203V85.4088V42.9203Z" fill="#A33F39" fill-opacity="0.3"/>
<path d="M44.9651 42.9203V85.4088" stroke="#A33F39"/>
<path d="M41.2795 85.4088H47.9137H41.2795Z" fill="#A33F39" fill-opacity="0.3"/>
<path d="M41.2795 85.4088H47.9137" stroke="#A33F39"/>
<path d="M43.4908 57.0831H46.4393H43.4908Z" fill="#A33F39" fill-opacity="0.3"/>
<path d="M43.4908 57.0831H46.4393" stroke="#A33F39"/>
<path d="M43.4908 92.4902H46.4393H43.4908Z" fill="#A33F39" fill-opacity="0.3"/>
<path d="M43.4908 92.4902H46.4393" stroke="#A33F39"/>
<path d="M43.4908 76.9111H46.4393H43.4908Z" fill="#A33F39" fill-opacity="0.3"/>
<path d="M43.4908 76.9111H46.4393" stroke="#A33F39"/>
<path d="M43.4908 65.5808H46.4393H43.4908Z" fill="#A33F39" fill-opacity="0.3"/>
<path d="M43.4908 65.5808H46.4393" stroke="#A33F39"/>
<path d="M41.2795 42.9203H47.9137H41.2795Z" fill="#A33F39" fill-opacity="0.3"/>
<path d="M41.2795 42.9203H47.9137" stroke="#A33F39"/>
<path d="M89.1931 14.5946V78.3274V14.5946Z" fill="#A33F39" fill-opacity="0.3"/>
<path d="M89.1931 14.5946V78.3274" stroke="#A33F39"/>
<path d="M85.5076 78.3273H92.8789H85.5076Z" fill="#A33F39" fill-opacity="0.3"/>
<path d="M85.5076 78.3273H92.8789" stroke="#A33F39"/>
<path d="M87.7188 28.7575H90.6674H87.7188Z" fill="#A33F39" fill-opacity="0.3"/>
<path d="M87.7188 28.7575H90.6674" stroke="#A33F39"/>
<path d="M87.7188 85.4088H90.6674H87.7188Z" fill="#A33F39" fill-opacity="0.3"/>
<path d="M87.7188 85.4088H90.6674" stroke="#A33F39"/>
<path d="M87.7188 52.8343H90.6674H87.7188Z" fill="#A33F39" fill-opacity="0.3"/>
<path d="M87.7188 52.8343H90.6674" stroke="#A33F39"/>
<path d="M87.7188 37.2552H90.6674H87.7188Z" fill="#A33F39" fill-opacity="0.3"/>
<path d="M87.7188 37.2552H90.6674" stroke="#A33F39"/>
<path d="M85.5076 14.5946H92.8789H85.5076Z" fill="#A33F39" fill-opacity="0.3"/>
<path d="M85.5076 14.5946H92.8789" stroke="#A33F39"/>
<path d="M133.421 16.0109V64.1645V16.0109Z" fill="#A33F39" fill-opacity="0.3"/>
<path d="M133.421 16.0109V64.1645" stroke="#A33F39"/>
<path d="M130.473 64.1645H137.107H130.473Z" fill="#A33F39" fill-opacity="0.3"/>
<path d="M130.473 64.1645H137.107" stroke="#A33F39"/>
<path d="M132.684 14.5946H134.895H132.684Z" fill="#A33F39" fill-opacity="0.3"/>
<path d="M132.684 14.5946H134.895" stroke="#A33F39"/>
<path d="M132.684 71.246H134.895H132.684Z" fill="#A33F39" fill-opacity="0.3"/>
<path d="M132.684 71.246H134.895" stroke="#A33F39"/>
<path d="M132.684 47.1691H134.895H132.684Z" fill="#A33F39" fill-opacity="0.3"/>
<path d="M132.684 47.1691H134.895" stroke="#A33F39"/>
<path d="M132.684 24.5086H134.895H132.684Z" fill="#A33F39" fill-opacity="0.3"/>
<path d="M132.684 24.5086H134.895" stroke="#A33F39"/>
<path d="M130.473 16.0109H137.107H130.473Z" fill="#A33F39" fill-opacity="0.3"/>
<path d="M130.473 16.0109H137.107" stroke="#A33F39"/>
<path d="M178.386 78.3273V92.4902V78.3273Z" fill="#A33F39" fill-opacity="0.3"/>
<path d="M178.386 78.3273V92.4902" stroke="#A33F39"/>
<path d="M174.7 92.4902H181.335H174.7Z" fill="#A33F39" fill-opacity="0.3"/>
<path d="M174.7 92.4902H181.335" stroke="#A33F39"/>
<path d="M176.912 78.3273H179.86H176.912Z" fill="#A33F39" fill-opacity="0.3"/>
<path d="M176.912 78.3273H179.86" stroke="#A33F39"/>
<path d="M176.912 92.4902H179.86H176.912Z" fill="#A33F39" fill-opacity="0.3"/>
<path d="M176.912 92.4902H179.86" stroke="#A33F39"/>
<path d="M176.912 88.2413H179.86H176.912Z" fill="#A33F39" fill-opacity="0.3"/>
<path d="M176.912 88.2413H179.86" stroke="#A33F39"/>
<path d="M176.912 82.5762H179.86H176.912Z" fill="#A33F39" fill-opacity="0.3"/>
<path d="M176.912 82.5762H179.86" stroke="#A33F39"/>
<path d="M174.7 78.3273H181.335H174.7Z" fill="#A33F39" fill-opacity="0.3"/>
<path d="M174.7 78.3273H181.335" stroke="#A33F39"/>
<path d="M222.614 108.069V110.902V108.069Z" fill="#A33F39" fill-opacity="0.3"/>
<path d="M222.614 108.069V110.902" stroke="#A33F39"/>
<path d="M219.666 108.069H226.3H219.666Z" fill="#A33F39" fill-opacity="0.3"/>
<path d="M219.666 108.069H226.3" stroke="#A33F39"/>
<path d="M221.14 123.648H224.089H221.14Z" fill="#A33F39" fill-opacity="0.3"/>
<path d="M221.14 123.648H224.089" stroke="#A33F39"/>
<path d="M221.14 117.983H224.089H221.14Z" fill="#A33F39" fill-opacity="0.3"/>
<path d="M221.14 117.983H224.089" stroke="#A33F39"/>
<path d="M221.14 115.151H224.089H221.14Z" fill="#A33F39" fill-opacity="0.3"/>
<path d="M221.14 115.151H224.089" stroke="#A33F39"/>
<path d="M221.14 113.734H224.089H221.14Z" fill="#A33F39" fill-opacity="0.3"/>
<path d="M221.14 113.734H224.089" stroke="#A33F39"/>
<path d="M219.666 110.902H226.3H219.666Z" fill="#A33F39" fill-opacity="0.3"/>
<path d="M219.666 110.902H226.3" stroke="#A33F39"/>
<path d="M267.579 156.223V157.639V156.223Z" fill="#A33F39" fill-opacity="0.3"/>
<path d="M267.579 156.223V157.639" stroke="#A33F39"/>
<path d="M263.894 157.639H270.528H263.894Z" fill="#A33F39" fill-opacity="0.3"/>
<path d="M263.894 157.639H270.528" stroke="#A33F39"/>
<path d="M266.105 181.716H268.316H266.105Z" fill="#A33F39" fill-opacity="0.3"/>
<path d="M266.105 181.716H268.316" stroke="#A33F39"/>
<path d="M266.105 183.132H268.316H266.105Z" fill="#A33F39" fill-opacity="0.3"/>
<path d="M266.105 183.132H268.316" stroke="#A33F39"/>
<path d="M266.105 173.218H268.316H266.105Z" fill="#A33F39" fill-opacity="0.3"/>
<path d="M266.105 173.218H268.316" stroke="#A33F39"/>
<path d="M266.105 164.721H268.316H266.105Z" fill="#A33F39" fill-opacity="0.3"/>
<path d="M266.105 164.721H268.316" stroke="#A33F39"/>
<path d="M263.894 156.223H270.528H263.894Z" fill="#A33F39" fill-opacity="0.3"/>
<path d="M263.894 156.223H270.528" stroke="#A33F39"/>
<path d="M311.807 85.4088V103.82V85.4088Z" fill="#A33F39" fill-opacity="0.3"/>
<path d="M311.807 85.4088V103.82" stroke="#A33F39"/>
<path d="M308.122 103.82H315.493H308.122Z" fill="#A33F39" fill-opacity="0.3"/>
<path d="M308.122 103.82H315.493" stroke="#A33F39"/>
<path d="M310.333 95.3228H313.282H310.333Z" fill="#A33F39" fill-opacity="0.3"/>
<path d="M310.333 95.3228H313.282" stroke="#A33F39"/>
<path d="M310.333 113.734H313.282H310.333Z" fill="#A33F39" fill-opacity="0.3"/>
<path d="M310.333 113.734H313.282" stroke="#A33F39"/>
<path d="M310.333 103.82H313.282H310.333Z" fill="#A33F39" fill-opacity="0.3"/>
<path d="M310.333 103.82H313.282" stroke="#A33F39"/>
<path d="M310.333 92.4902H313.282H310.333Z" fill="#A33F39" fill-opacity="0.3"/>
<path d="M310.333 92.4902H313.282" stroke="#A33F39"/>
<path d="M308.122 85.4088H315.493H308.122Z" fill="#A33F39" fill-opacity="0.3"/>
<path d="M308.122 85.4088H315.493" stroke="#A33F39"/>
<path d="M356.035 57.0831V85.4088V57.0831Z" fill="#A33F39" fill-opacity="0.3"/>
<path d="M356.035 57.0831V85.4088" stroke="#A33F39"/>
<path d="M353.087 85.4088H359.721H353.087Z" fill="#A33F39" fill-opacity="0.3"/>
<path d="M353.087 85.4088H359.721" stroke="#A33F39"/>
<path d="M354.561 57.0831H357.509H354.561Z" fill="#A33F39" fill-opacity="0.3"/>
<path d="M354.561 57.0831H357.509" stroke="#A33F39"/>
<path d="M354.561 92.4902H357.509H354.561Z" fill="#A33F39" fill-opacity="0.3"/>
<path d="M354.561 92.4902H357.509" stroke="#A33F39"/>
<path d="M354.561 78.3273H357.509H354.561Z" fill="#A33F39" fill-opacity="0.3"/>
<path d="M354.561 78.3273H357.509" stroke="#A33F39"/>
<path d="M354.561 68.4134H357.509H354.561Z" fill="#A33F39" fill-opacity="0.3"/>
<path d="M354.561 68.4134H357.509" stroke="#A33F39"/>
<path d="M353.087 57.0831H359.721H353.087Z" fill="#A33F39" fill-opacity="0.3"/>
<path d="M353.087 57.0831H359.721" stroke="#A33F39"/>
<path d="M44.7348 71.246C44.7348 71.246 74.4044 50.0017 89.2392 42.9203C104.074 35.8389 118.909 21.676 133.744 28.7575C148.578 35.8389 163.413 71.246 178.248 85.4088C193.083 99.5716 207.918 99.5716 222.752 113.734C237.587 127.897 252.422 172.746 267.257 170.386C282.092 168.025 296.926 116.095 311.761 99.5716C326.596 83.0483 356.265 71.246 356.265 71.246" stroke="#D9544C" stroke-width="2"/>
</svg>
